<svg width="26" height="31" viewBox="0 0 26 31" fill="none" xmlns="http://www.w3.org/2000/svg">
<path fill-rule="evenodd" clip-rule="evenodd" d="M13.2052 0.916626C14.8575 0.916626 23.5273 3.89308 24.675 5.04079C25.6317 5.99746 25.6171 6.77038 25.55 10.4745C25.5238 11.9591 25.4873 13.9818 25.4873 16.7818C25.4873 26.8181 14.0102 30.4085 13.5217 30.5558C13.4181 30.5879 13.3117 30.6025 13.2052 30.6025C13.0988 30.6025 12.9923 30.5879 12.8888 30.5558C12.4002 30.4085 0.923149 26.8181 0.923149 16.7818C0.923149 13.9862 0.886691 11.9635 0.860441 10.4789C0.848462 9.81668 0.838157 9.24805 0.834766 8.75527L0.834351 8.1992C0.84686 6.37243 1.01831 5.75829 1.7369 5.04079C2.88169 3.89308 11.5515 0.916626 13.2052 0.916626ZM13.2052 3.10413C11.9686 3.10413 4.16648 5.85163 3.26669 6.60267C3.00127 6.86954 2.99107 7.33329 3.04794 10.4381C3.07419 11.9343 3.11065 13.9673 3.11065 16.7818C3.11065 24.3666 11.4552 27.7339 13.2038 28.3537C14.9509 27.731 23.2998 24.3448 23.2998 16.7818C23.2998 13.9643 23.3363 11.93 23.364 10.4337C23.4194 7.33183 23.4092 6.86808 23.1277 6.58808C22.2454 5.85163 14.4419 3.10413 13.2052 3.10413ZM18.6324 11.6201C19.0597 12.0474 19.0597 12.7401 18.6324 13.1674L12.9478 18.8534C12.7845 19.0179 12.5736 19.1245 12.3471 19.1606L12.1749 19.1742C11.8847 19.1742 11.6062 19.059 11.4005 18.8534L8.64138 16.0913C8.21555 15.664 8.21555 14.9699 8.64284 14.544C9.06867 14.1167 9.76284 14.1167 10.1901 14.544L12.1749 16.5317L17.0866 11.6201C17.5139 11.1928 18.2051 11.1928 18.6324 11.6201Z" fill="#9FBDE0"/>
</svg>
