<svg width="32" height="27" viewBox="0 0 32 27" fill="none" xmlns="http://www.w3.org/2000/svg">
<path fill-rule="evenodd" clip-rule="evenodd" d="M25.9077 0.832886C29.1627 0.832886 31.811 3.45497 31.811 6.67643L31.8125 10.4593C31.8125 10.7481 31.6973 11.0281 31.4916 11.2323C31.2875 11.4379 31.0089 11.5531 30.7187 11.5531C29.571 11.5531 28.6377 12.4689 28.6377 13.5948C28.6377 14.7206 29.571 15.6364 30.7187 15.6364C31.3225 15.6364 31.8125 16.1264 31.8125 16.7302V20.5102C31.8125 23.7316 29.1641 26.3537 25.9091 26.3537H6.36165C3.10665 26.3537 0.458313 23.7316 0.458313 20.5102V16.7302C0.458313 16.1264 0.948313 15.6364 1.55206 15.6364C2.69977 15.6364 3.6331 14.7206 3.6331 13.5948C3.6331 12.501 2.73769 11.6756 1.55206 11.6756C1.26185 11.6756 0.983313 11.5604 0.779146 11.3548C0.573521 11.1506 0.458313 10.8706 0.458313 10.5818L0.459771 6.67643C0.459771 3.45497 3.1081 0.832886 6.3631 0.832886H25.9077ZM25.9077 3.02039H19.9256L19.9265 5.82214C19.9265 6.42589 19.4365 6.91589 18.8327 6.91589C18.229 6.91589 17.739 6.42589 17.739 5.82214L17.7381 3.02039H6.3631C4.31415 3.02039 2.64727 4.66101 2.64727 6.67643L2.64581 9.61934C4.49352 10.0729 5.8206 11.6566 5.8206 13.5948C5.8206 15.5518 4.47019 17.2027 2.64581 17.6825V20.5102C2.64581 22.5256 4.31269 24.1662 6.36165 24.1662H17.7381L17.739 21.9955C17.739 21.3903 18.229 20.9017 18.8327 20.9017C19.4365 20.9017 19.9265 21.3903 19.9265 21.9955L19.9256 24.1662H25.9091C27.9581 24.1662 29.625 22.5256 29.625 20.5102V17.6825C27.8006 17.2027 26.4502 15.5518 26.4502 13.5948C26.4502 11.6362 27.7991 9.98684 29.625 9.50705L29.6235 6.67643C29.6235 4.66101 27.9566 3.02039 25.9077 3.02039ZM18.8327 8.86028C19.4365 8.86028 19.9265 9.35028 19.9265 9.95403V16.9847C19.9265 17.5884 19.4365 18.0784 18.8327 18.0784C18.229 18.0784 17.739 17.5884 17.739 16.9847V9.95403C17.739 9.35028 18.229 8.86028 18.8327 8.86028Z" fill="#9FBDE0"/>
</svg>
