<svg width="31" height="31" viewBox="0 0 31 31" fill="none" xmlns="http://www.w3.org/2000/svg">
<path fill-rule="evenodd" clip-rule="evenodd" d="M21.8204 0.916687C26.7627 0.916687 30.0833 4.3846 30.0833 9.54419V21.4559C30.0833 26.6154 26.7627 30.0834 21.8189 30.0834H9.17809C4.23579 30.0834 0.916626 26.6154 0.916626 21.4559V9.54419C0.916626 4.3846 4.23579 0.916687 9.17809 0.916687H21.8204ZM21.8204 3.10419H9.17809C5.4885 3.10419 3.10413 5.63148 3.10413 9.54419V21.4559C3.10413 25.3686 5.4885 27.8959 9.17809 27.8959H21.8189C25.51 27.8959 27.8958 25.3686 27.8958 21.4559V9.54419C27.8958 5.63148 25.5114 3.10419 21.8204 3.10419ZM15.4986 8.0386C16.1024 8.0386 16.5924 8.5286 16.5924 9.13235V14.8724L21.0053 17.5017C21.523 17.8124 21.6936 18.4832 21.3845 19.0024C21.1789 19.3451 20.8157 19.5361 20.4439 19.5361C20.2528 19.5361 20.0603 19.4865 19.8839 19.383L14.9386 16.4328C14.6091 16.2344 14.4049 15.8771 14.4049 15.4936V9.13235C14.4049 8.5286 14.8949 8.0386 15.4986 8.0386Z" fill="#9FBDE0"/>
</svg>
