<svg width="35" height="34" viewBox="0 0 35 34" fill="none" xmlns="http://www.w3.org/2000/svg">
<path fill-rule="evenodd" clip-rule="evenodd" d="M13.2995 20.946C19.0085 20.946 26.599 21.5889 26.599 27.1508C26.599 33.0097 17.7545 33.3612 13.9606 33.3823L12.5832 33.3823C8.53806 33.3613 0 33.0118 0 27.1858C0 21.3204 8.84454 20.9685 12.6384 20.9474L13.0942 20.9461C13.1652 20.946 13.2337 20.946 13.2995 20.946ZM13.2995 23.5737C8.43131 23.5737 2.62767 24.1991 2.62767 27.1858C2.62767 29.5542 6.21881 30.756 13.2995 30.756C20.3802 30.756 23.9713 29.542 23.9713 27.1508C23.9713 24.7771 20.3802 23.5737 13.2995 23.5737ZM29.2664 20.1278C34.0067 20.8372 35 23.0322 35 24.7472C35 26.0242 34.4482 27.7532 31.8153 28.75C31.6629 28.8078 31.5052 28.8358 31.3493 28.8358C30.8185 28.8358 30.3192 28.5118 30.1213 27.988C29.8638 27.31 30.2054 26.5498 30.8833 26.294C32.3723 25.7299 32.3723 25.0415 32.3723 24.7472C32.3723 23.7539 31.1969 23.0742 28.8793 22.7291C28.1611 22.6205 27.6653 21.9514 27.7722 21.2349C27.8808 20.5166 28.5622 20.0349 29.2664 20.1278ZM13.2995 0C18.2588 0 22.295 4.0361 22.295 8.99538C22.3054 11.3848 21.3787 13.6411 19.69 15.3403C18.0048 17.0413 15.7537 17.982 13.3591 17.9908H13.2995C8.33846 17.9908 4.30237 13.9547 4.30237 8.99538C4.30237 4.0361 8.33846 0 13.2995 0ZM25.7154 1.96865C29.1576 2.53272 31.6557 5.47746 31.6557 8.96875C31.6487 12.4811 29.0263 15.4976 25.5542 15.9846C25.4929 15.9934 25.4316 15.9969 25.3703 15.9969C24.7256 15.9969 24.1633 15.5222 24.0705 14.8652C23.9706 14.147 24.4699 13.4813 25.1881 13.3815C27.3743 13.0749 29.0245 11.1777 29.028 8.967C29.028 6.77027 27.4549 4.91689 25.2915 4.56303C24.575 4.44391 24.0898 3.76948 24.2071 3.053C24.3245 2.33652 25.0024 1.85478 25.7154 1.96865ZM13.2995 2.62767C9.78718 2.62767 6.93003 5.48482 6.93003 8.99538C6.93003 12.5059 9.78718 15.3631 13.2995 15.3631H13.3538C15.0425 15.3561 16.6331 14.6922 17.8261 13.4887C19.0208 12.2887 19.6742 10.6929 19.6673 9.00064C19.6673 5.48482 16.8101 2.62767 13.2995 2.62767Z" fill="#9FBDE0"/>
</svg>
