<svg width="553" height="644" viewBox="0 0 553 644" fill="none" xmlns="http://www.w3.org/2000/svg">
<g clip-path="url(#clip0_18_36)">
<rect y="1" width="553" height="643" rx="36" fill="#ECEFF7"/>
<g clip-path="url(#clip1_18_36)">
<rect width="831" height="1232" transform="translate(-55 -154)" fill="#E5ECF9"/>
<path d="M539.546 -20.1671L549.692 78.5785L614.745 140.928L629.666 136.155L676.815 84.2466C676.815 84.2466 760.967 -82.2186 759.774 -84.0086C758.58 -85.5002 693.228 -189.317 693.228 -189.317L552.974 -47.0163L539.546 -20.1671Z" fill="#ECEFF7" fill-opacity="0.24"/>
<path d="M461.062 647.485L451.215 671.351L477.773 681.196L506.123 660.91L521.342 670.754L543.424 664.49L561.329 642.712L556.256 632.867L461.062 647.485Z" fill="#ECEFF7" fill-opacity="0.24"/>
<path d="M513.583 578.871L500.154 570.219L625.189 312.765L635.036 311.273L647.868 327.681L627.278 346.177L513.583 578.871Z" fill="#ECEFF7" fill-opacity="0.24"/>
<g opacity="0.5">
<g opacity="0.5">
<g opacity="0.5">
<g opacity="0.5">
<path opacity="0.5" d="M42.3904 24.8795L45.076 26.3712" stroke="#4D2161" stroke-width="1.24368" stroke-linecap="round" stroke-linejoin="round"/>
<path opacity="0.5" d="M50.4484 29.3548L108.937 62.4688L170.111 118.852L201.743 139.735L207.413 144.807" stroke="#4D2161" stroke-width="1.24368" stroke-linecap="round" stroke-linejoin="round" stroke-dasharray="4.98 4.98"/>
<path opacity="0.5" d="M209.501 146.894L211.888 149.281" stroke="#4D2161" stroke-width="1.24368" stroke-linecap="round" stroke-linejoin="round"/>
</g>
</g>
<path opacity="0.5" d="M203.533 140.63L321.107 126.907L401.38 205.367L386.758 221.178" stroke="#4D2161" stroke-width="1.24368" stroke-miterlimit="10" stroke-linecap="round" stroke-linejoin="round" stroke-dasharray="4.97 4.97"/>
<path opacity="0.5" d="M623.4 251.009L600.422 230.723L566.105 215.21L470.613 203.874L400.188 205.067" stroke="#4D2161" stroke-width="1.24368" stroke-miterlimit="10" stroke-linecap="round" stroke-linejoin="round" stroke-dasharray="4.97 4.97"/>
<path opacity="0.5" d="M542.529 371.832L344.383 787.398" stroke="#4D2161" stroke-width="1.24368" stroke-miterlimit="10" stroke-linecap="round" stroke-linejoin="round" stroke-dasharray="4.97 4.97"/>
<path opacity="0.5" d="M-88.9102 634.656C-88.9102 631.374 238.447 347.667 238.447 347.667C238.447 347.667 131.616 177.026 6.8799 103.041L-104.726 166.883" stroke="#4D2161" stroke-width="1.24368" stroke-miterlimit="10" stroke-linecap="round" stroke-linejoin="round" stroke-dasharray="4.97 4.97"/>
<path opacity="0.5" d="M416.002 -38.0677C415.704 -38.9627 390.339 -60.1438 390.339 -60.1438L327.971 5.78606L383.177 61.8711L255.755 189.554" stroke="#4D2161" stroke-width="1.24368" stroke-miterlimit="10" stroke-linecap="round" stroke-linejoin="round" stroke-dasharray="4.97 4.97"/>
<g opacity="0.5">
<path opacity="0.5" d="M536.263 28.7573L538.054 38.3037" stroke="#4D2161" stroke-width="1.24368" stroke-miterlimit="10" stroke-linecap="round" stroke-linejoin="round"/>
<path opacity="0.5" d="M542.231 27.5647L543.723 37.1111" stroke="#4D2161" stroke-width="1.24368" stroke-miterlimit="10" stroke-linecap="round" stroke-linejoin="round"/>
<path opacity="0.5" d="M547.901 26.371L549.692 35.6191" stroke="#4D2161" stroke-width="1.24368" stroke-miterlimit="10" stroke-linecap="round" stroke-linejoin="round"/>
</g>
<path opacity="0.5" d="M632.052 257.274L638.915 265.627L612.356 341.998L404.662 755.476L303.799 960.724L551.182 1105.41" stroke="#4D2161" stroke-width="1.24368" stroke-miterlimit="10" stroke-linecap="round" stroke-linejoin="round" stroke-dasharray="4.97 4.97"/>
<path opacity="0.5" d="M52.2388 558.582L98.4926 595.873L242.327 669.559" stroke="#4D2161" stroke-width="1.24368" stroke-miterlimit="10" stroke-linecap="round" stroke-linejoin="round" stroke-dasharray="4.97 4.97"/>
<path opacity="0.5" d="M324.091 600.051L254.561 629.286L237.85 694.023" stroke="#4D2161" stroke-width="1.24368" stroke-miterlimit="10" stroke-linecap="round" stroke-linejoin="round" stroke-dasharray="4.97 4.97"/>
<path opacity="0.5" d="M92.822 517.115L-88.6123 682.089" stroke="#4D2161" stroke-width="1.24368" stroke-miterlimit="10" stroke-linecap="round" stroke-linejoin="round" stroke-dasharray="4.97 4.97"/>
<path opacity="0.5" d="M356.321 409.122V425.232L282.017 537.104C282.017 537.104 224.125 514.431 221.737 511.746C219.35 509.061 173.395 452.38 173.395 452.38L141.763 454.766" stroke="#4D2161" stroke-width="1.24368" stroke-miterlimit="10" stroke-linecap="round" stroke-linejoin="round" stroke-dasharray="4.97 4.97"/>
<path opacity="0.5" d="M308.276 534.716L298.428 569.322" stroke="#4D2161" stroke-width="1.24368" stroke-miterlimit="10" stroke-linecap="round" stroke-linejoin="round" stroke-dasharray="4.97 4.97"/>
<path opacity="0.5" d="M282.015 537.103L304.098 545.158" stroke="#4D2161" stroke-width="1.24368" stroke-miterlimit="10" stroke-linecap="round" stroke-linejoin="round" stroke-dasharray="4.97 4.97"/>
<path opacity="0.5" d="M393.322 580.062L437.487 589.609" stroke="#4D2161" stroke-width="1.24368" stroke-miterlimit="10" stroke-linecap="round" stroke-linejoin="round" stroke-dasharray="4.97 4.97"/>
<path opacity="0.5" d="M458.974 437.761L366.764 418.967L355.126 470.875" stroke="#4D2161" stroke-width="1.24368" stroke-miterlimit="10" stroke-linecap="round" stroke-linejoin="round" stroke-dasharray="4.97 4.97"/>
<path opacity="0.5" d="M245.31 520.099C245.31 520.099 342.891 436.866 341.996 435.673C341.1 434.479 263.812 350.053 263.812 350.053" stroke="#4D2161" stroke-width="1.24368" stroke-miterlimit="10" stroke-linecap="round" stroke-linejoin="round" stroke-dasharray="4.97 4.97"/>
<path opacity="0.5" d="M255.159 377.797L274.257 361.986" stroke="#4D2161" stroke-width="1.24368" stroke-miterlimit="10" stroke-linecap="round" stroke-linejoin="round" stroke-dasharray="4.97 4.97"/>
<path opacity="0.5" d="M102.074 200.295L-83.2398 356.319" stroke="#4D2161" stroke-width="1.24368" stroke-miterlimit="10" stroke-linecap="round" stroke-linejoin="round" stroke-dasharray="4.97 4.97"/>
<path opacity="0.5" d="M-43.8505 321.414L-27.1394 344.087L-7.74262 327.978L104.759 463.119" stroke="#4D2161" stroke-width="1.24368" stroke-miterlimit="10" stroke-linecap="round" stroke-linejoin="round" stroke-dasharray="4.97 4.97"/>
<path opacity="0.5" d="M621.607 499.216L551.182 464.61" stroke="#4D2161" stroke-width="1.24368" stroke-miterlimit="10" stroke-linecap="round" stroke-linejoin="round" stroke-dasharray="4.97 4.97"/>
<g opacity="0.5">
<path opacity="0.5" d="M538.052 369.445L546.706 373.92" stroke="#4D2161" stroke-width="1.24368" stroke-miterlimit="10" stroke-linecap="round" stroke-linejoin="round"/>
<path opacity="0.5" d="M540.439 364.076L549.093 368.551" stroke="#4D2161" stroke-width="1.24368" stroke-miterlimit="10" stroke-linecap="round" stroke-linejoin="round"/>
<path opacity="0.5" d="M543.125 358.705L551.779 362.881" stroke="#4D2161" stroke-width="1.24368" stroke-miterlimit="10" stroke-linecap="round" stroke-linejoin="round"/>
<path opacity="0.5" d="M545.513 353.336L554.166 357.512" stroke="#4D2161" stroke-width="1.24368" stroke-miterlimit="10" stroke-linecap="round" stroke-linejoin="round"/>
<path opacity="0.5" d="M547.899 347.965L556.553 352.141" stroke="#4D2161" stroke-width="1.24368" stroke-miterlimit="10" stroke-linecap="round" stroke-linejoin="round"/>
<path opacity="0.5" d="M550.586 342.596L559.24 346.772" stroke="#4D2161" stroke-width="1.24368" stroke-miterlimit="10" stroke-linecap="round" stroke-linejoin="round"/>
</g>
<path opacity="0.5" d="M-88.3131 -119.808L31.9468 -8.83094L19.1151 5.19032" stroke="#4D2161" stroke-width="1.24368" stroke-miterlimit="10" stroke-linecap="round" stroke-linejoin="round" stroke-dasharray="4.97 4.97"/>
<path opacity="0.5" d="M462.256 644.799L550.586 630.479L595.049 642.711L783.347 741.456" stroke="#4D2161" stroke-width="1.24368" stroke-miterlimit="10" stroke-linecap="round" stroke-linejoin="round" stroke-dasharray="4.97 4.97"/>
</g>
</g>
<path d="M381.088 62.1698C379.298 63.9597 379.298 66.943 381.387 68.7329L457.78 140.928L468.523 226.249L446.739 323.801L370.345 243.85L388.548 225.95C390.339 224.16 390.339 221.177 388.548 219.387C386.758 217.597 383.774 217.597 381.983 219.387L332.447 268.014L224.72 154.949C222.93 153.159 219.946 153.159 218.155 154.651C216.365 156.44 216.365 159.424 217.857 161.214L326.777 275.472L318.422 293.372L233.374 369.146L160.263 282.632C159.965 282.334 159.965 282.035 159.667 281.439C159.368 281.14 159.07 280.842 158.473 280.544L104.759 217C103.864 216.105 102.67 215.509 101.476 215.21C100.283 215.21 99.089 215.509 98.1938 216.404L4.79091 296.951C-1.77415 302.62 -2.66937 312.166 2.70204 318.729L38.5114 364.075C43.8829 370.936 53.432 372.129 60.5939 366.759L155.19 290.687L226.212 375.113L14.0417 563.952L-10.1297 533.821L58.505 475.051C68.9494 466.102 70.4415 450.589 61.7876 439.551L-7.14556 353.633C-8.04079 352.738 -8.93603 352.142 -10.1297 351.843L-52.2057 346.772C-54.593 346.473 -56.9803 348.263 -57.2787 350.948C-57.5772 353.633 -55.7867 355.721 -53.101 356.02L-12.8154 360.793L7.47662 385.852L-70.7073 454.467C-75.4818 458.644 -76.0787 466.102 -72.1993 471.173L8.07343 570.814L-89.5072 657.626C-91.2977 659.416 -91.5961 662.4 -89.8056 664.189C-88.9104 665.084 -87.7167 665.681 -86.2247 665.681C-85.031 665.681 -84.1358 665.383 -83.2406 664.488L83.5716 515.922L322.898 602.436L316.333 634.655C315.736 637.042 317.526 639.727 319.914 640.025C320.212 640.025 320.51 640.025 320.809 640.025C322.898 640.025 324.987 638.533 325.285 636.445L359.006 473.56C359.602 471.173 357.812 468.488 355.425 468.19C353.037 467.593 350.352 469.383 350.053 471.77L324.688 593.188L91.3303 508.762L115.8 486.984C119.381 492.354 128.035 502.497 142.956 502.497C143.552 502.497 143.851 502.497 144.448 502.497C145.343 502.497 146.536 502.199 147.133 501.304L163.546 487.879C165.635 486.388 165.933 483.405 164.143 481.316C162.651 479.228 159.667 478.93 157.578 480.72L142.359 493.249C130.721 492.951 124.454 484.001 122.664 481.018L275.45 344.982L328.866 405.84C333.342 410.912 339.907 413.597 346.472 413.597C351.844 413.597 357.215 411.807 361.691 407.928L381.983 390.327C386.758 386.151 389.742 380.482 390.04 374.218C390.339 367.953 388.25 361.688 384.072 357.213L328.269 296.057L336.625 277.859L364.079 251.009L444.65 335.435L425.551 421.353C424.955 423.74 426.447 426.425 429.132 427.021C429.431 427.021 429.729 427.021 430.028 427.021C432.117 427.021 434.205 425.53 434.504 423.441L477.773 228.337C477.773 227.74 477.773 227.143 477.773 226.845L466.732 139.138C466.732 137.944 466.135 137.049 465.24 136.453L387.355 63.0648C385.863 60.0815 382.879 60.3798 381.088 62.1698ZM55.2225 360.196C52.2384 362.285 48.359 361.688 46.2702 359.003L10.4607 313.658C8.37186 310.973 8.67026 306.796 11.356 304.708L101.178 227.143L149.521 284.422L55.2225 360.196ZM-65.3359 465.207C-66.2311 464.013 -66.2311 462.522 -65.0374 461.329L12.848 393.012L55.2225 446.114C60.5939 452.975 59.6987 462.82 53.1336 468.488L-15.5011 526.96L-65.3359 465.207ZM377.209 363.18C379.894 365.865 381.088 369.743 380.79 373.323C380.491 377.201 378.701 380.482 376.015 383.167L355.723 400.769C350.053 405.84 341.101 405.243 336.028 399.277L282.612 338.419L322.599 302.918L377.209 363.18Z" fill="#D8E4F2" stroke="#0DD7D7" stroke-opacity="0.11" stroke-width="1.24368" stroke-miterlimit="10"/>
<path d="M796.775 548.142L749.327 546.948L750.223 481.913L782.749 495.338C785.137 496.233 787.822 495.04 789.016 492.951C789.911 490.565 788.718 487.88 786.629 486.985L749.327 471.472C748.731 471.174 748.432 471.174 747.835 471.174C747.835 471.174 747.835 471.174 747.537 471.174H744.254L640.109 467.594C638.318 467.594 636.826 468.489 635.931 469.98L601.017 533.524C600.718 534.12 600.42 534.717 600.42 535.612L596.54 616.16L575.353 618.248L481.354 570.516L643.391 227.442L705.162 256.678L740.673 294.864L659.804 360.794C657.715 362.285 657.416 365.268 659.207 367.357C660.102 368.55 661.594 369.147 662.788 369.147C663.683 369.147 664.877 368.848 665.772 367.953L689.048 349.159L743.956 395.101C744.851 395.698 745.746 396.294 746.94 396.294C748.134 396.294 749.626 395.698 750.521 394.504C752.311 392.416 752.013 389.731 749.924 387.941L696.21 342.894L716.204 326.486L776.184 390.626C777.08 391.521 778.273 392.118 779.467 392.118C780.661 392.118 781.854 391.819 782.749 390.924C784.54 389.134 784.838 386.151 783.048 384.361L723.365 320.818L783.645 271.594C785.734 270.103 786.032 267.12 784.242 265.031C782.749 262.943 779.765 262.645 777.676 264.435L747.537 288.897L711.131 249.817C710.832 249.518 710.235 248.922 709.639 248.922L646.972 219.388L650.553 211.631C656.521 198.803 653.239 183.589 642.496 174.34L637.124 169.567L705.162 56.5021C706.356 54.4138 705.759 51.4306 703.67 50.2373C701.581 49.044 698.597 49.6406 697.404 51.7289L630.261 163.302L543.722 89.3178C540.439 86.6329 535.665 86.9312 532.68 90.2128C529.995 93.4944 530.293 98.2676 533.576 101.251L632.648 185.975C638.02 190.748 639.81 198.206 636.528 204.77L466.731 563.953L463.15 571.709L276.643 966.095L246.504 935.069C245.907 934.472 245.31 934.174 244.713 933.577L184.136 899.867C185.329 899.568 186.224 898.673 186.821 897.48L196.967 877.492C197.266 877.194 197.266 876.896 197.266 876.597L241.132 699.989C241.431 698.796 241.132 697.602 240.535 696.409C239.939 695.216 238.745 694.619 237.551 694.321L96.4025 661.505C94.0152 660.908 91.3295 662.4 90.7327 665.085C90.1358 667.472 91.6279 670.156 94.3136 670.753L230.986 702.376L188.313 873.912L178.466 893.602C177.869 894.795 177.869 895.69 178.167 896.883L68.9486 836.323L110.726 755.179C114.009 749.213 114.307 742.053 112.218 735.49C109.831 728.927 105.355 723.855 99.0882 720.872L57.0121 701.779C54.6248 700.586 51.9391 701.779 50.7455 704.166C49.5518 706.552 50.7455 709.237 53.1328 710.43L95.2088 729.523C99.0882 731.313 102.072 734.595 103.564 738.473C105.056 742.649 104.758 746.826 102.669 750.704L60.8915 831.849L-88.0159 748.914C-91.8953 746.826 -96.3715 748.318 -98.4604 751.898C-100.549 755.776 -99.0572 760.251 -95.4762 762.339L236.059 946.704L269.183 980.713L269.481 981.011L213.678 1099.15C211.888 1103.03 213.38 1107.8 217.259 1109.59C218.453 1110.19 219.348 1110.48 220.542 1110.48C223.526 1110.48 226.212 1108.69 227.704 1106.01L278.135 999.507L488.515 1116.15C489.709 1116.75 490.903 1117.05 492.395 1117.05C495.08 1117.05 497.766 1115.56 499.258 1113.17C501.347 1109.29 499.855 1104.82 496.274 1102.73L284.999 985.486L429.132 680.3L486.427 709.237L404.363 850.345C403.17 852.433 403.767 855.416 406.154 856.61C406.751 856.908 407.646 857.206 408.541 857.206C410.033 857.206 411.824 856.311 412.719 854.82L449.722 791.276L508.807 825.286L467.925 899.568C463.15 908.22 466.135 918.96 474.49 924.031L577.144 987.574C580.128 989.364 583.41 990.259 586.991 990.259C588.483 990.259 590.274 989.961 591.766 989.663C596.541 988.469 600.718 984.889 603.106 980.713L644.883 903.148L693.226 930.893C698.001 933.577 701.283 938.052 702.477 943.124C703.67 948.494 703.073 953.864 700.089 958.338L653.239 1033.22C652.94 1033.52 652.94 1033.81 652.642 1034.11L630.858 1097.06C629.963 1099.45 631.455 1102.13 633.842 1103.03C634.439 1103.32 634.737 1103.32 635.334 1103.32C637.124 1103.32 639.213 1102.13 639.81 1100.04L661.296 1037.69L707.848 963.41C712.026 956.548 713.219 948.792 711.429 941.036C709.639 933.279 704.566 927.014 697.702 922.838L521.341 821.407L551.182 767.112C552.376 764.726 551.48 762.041 549.391 760.847C547.004 759.654 544.318 760.549 543.125 762.637L513.284 816.634L454.198 782.625L497.169 708.939C497.766 707.745 498.065 706.552 497.468 705.359C497.169 704.166 496.274 702.972 495.081 702.376L433.309 671.35L476.877 578.869L571.772 626.899C572.369 627.198 573.264 627.496 573.861 627.496C574.16 627.496 574.16 627.496 574.458 627.496L601.017 624.811L777.08 631.076H777.378C779.765 631.076 781.854 628.988 782.153 626.601C782.153 623.916 780.362 621.828 777.676 621.828L605.791 615.563L609.372 536.805L642.496 476.842L740.972 480.124L740.077 546.65L709.34 546.053C706.953 546.053 704.566 548.142 704.566 550.528C704.566 553.213 706.654 555.301 709.042 555.301L742.464 556.196H746.045L796.178 557.39C798.565 557.39 800.654 555.301 800.952 552.915C801.251 550.23 799.162 548.142 796.775 548.142ZM517.163 829.462L636.826 898.375L595.048 976.238C593.855 978.625 591.766 980.116 589.379 980.713C586.991 981.309 584.306 981.011 582.217 979.519L479.563 915.976C475.385 913.291 473.893 908.22 476.281 903.745L517.163 829.462Z" fill="#D8E4F2" stroke="#0DD7D7" stroke-opacity="0.11" stroke-width="1.24368" stroke-miterlimit="10"/>
<path d="M526.713 88.4226C527.608 89.3176 528.802 89.6159 529.995 89.6159C531.189 89.6159 532.383 89.0193 533.278 88.1243C535.068 86.3343 535.068 83.3511 532.979 81.5612L415.405 -30.6091L453.005 -70.8829L515.373 -20.1677C517.164 -18.6761 519.849 -18.6761 521.64 -20.466L680.693 -185.141C682.484 -186.931 682.484 -189.915 680.693 -191.705C678.903 -193.494 675.919 -193.494 674.128 -191.705L518.357 -29.7141L455.691 -80.4293C453.9 -81.9209 450.916 -81.921 449.424 -80.131L405.856 -33.294C404.066 -31.504 404.066 -28.5208 406.154 -26.7308L526.713 88.4226Z" fill="#D8E4F2" stroke="#0DD7D7" stroke-opacity="0.11" stroke-width="1.24368" stroke-miterlimit="10"/>
<path d="M314.541 -168.435L54.3263 112.886C52.5358 114.676 52.8342 117.659 54.6247 119.449C55.5199 120.344 56.7136 120.642 57.9072 120.642C59.1009 120.642 60.2945 120.045 61.1897 119.15L321.405 -162.17L371.24 -117.421C378.998 -110.261 379.893 -98.3284 373.328 -89.9753L356.02 -69.0925C354.528 -67.0043 354.528 -64.3193 356.617 -62.5294C357.513 -61.9327 358.408 -61.3361 359.601 -61.3361C360.795 -61.3361 362.287 -61.9327 363.182 -63.126L380.49 -84.0088C390.338 -95.9418 389.144 -113.841 377.506 -124.283L302.903 -191.406C301.113 -193.196 298.129 -192.897 296.338 -191.107C294.548 -189.317 294.846 -186.334 296.637 -184.544L314.541 -168.435Z" fill="#D8E4F2" stroke="#0DD7D7" stroke-opacity="0.11" stroke-width="1.24368" stroke-miterlimit="10"/>
<path d="M-52.8025 99.4601L-90.7008 123.923C-92.7897 125.414 -93.3865 128.099 -92.1928 130.486C-91.2976 131.978 -89.8056 132.574 -88.3135 132.574C-87.4183 132.574 -86.523 132.276 -85.9262 131.978L-44.447 105.128L-8.93598 99.1618L36.1242 172.55C40.0035 179.113 37.9146 188.063 31.3496 192.239L-87.1198 265.925C-89.2087 267.417 -90.104 270.102 -88.6119 272.489C-87.7167 273.98 -86.2246 274.577 -84.7326 274.577C-83.8373 274.577 -82.9421 274.279 -82.3453 273.98L36.1242 200.294C47.1654 193.432 50.4479 179.113 43.8829 168.075L-0.282036 94.0903L54.3273 40.0934C56.1178 38.3035 56.1178 35.3202 54.3273 33.5303L22.3972 0.416223C20.6068 -1.37373 17.6226 -1.37373 15.8322 0.416223C14.0417 2.20617 14.0417 5.18944 15.8322 6.97938L44.7781 37.1102L-6.84711 88.1238C-7.44393 88.1238 -8.33916 88.4221 -8.93598 88.7204C-9.53281 89.0187 -10.1296 89.6154 -10.428 90.212L-43.5517 95.5819L-90.4024 44.8666C-92.1929 43.0767 -95.177 42.7784 -96.9674 44.5683C-98.7579 46.3583 -99.0563 49.3415 -97.2658 51.1315L-52.8025 99.4601Z" fill="#D8E4F2" stroke="#0DD7D7" stroke-opacity="0.11" stroke-width="1.24368" stroke-miterlimit="10"/>
<path d="M518.657 -23.4491L535.666 77.9814" stroke="#D8E4F2" stroke-width="7.46206" stroke-miterlimit="10" stroke-linecap="round" stroke-linejoin="round"/>
<path d="M84.4184 390.909L66.5624 405.365L81.7734 424.143L99.6294 409.687L84.4184 390.909Z" fill="#0DD7D7" fill-opacity="0.12"/>
<path d="M128.05 396.19L110.976 411.56L127.149 429.516L144.223 414.146L128.05 396.19Z" fill="#0DD7D7" fill-opacity="0.12"/>
<path d="M174.622 324.898L153.112 344.26L164.293 356.675L185.803 337.313L174.622 324.898Z" fill="#0DD7D7" fill-opacity="0.12"/>
<path d="M557.151 643.008L545.214 664.785L557.151 671.945L568.789 650.167L557.151 643.008Z" fill="#0DD7D7" fill-opacity="0.12"/>
<path d="M74.0224 615.86L94.9113 640.323L107.146 628.986L86.5557 605.717L74.0224 615.86Z" fill="#0DD7D7" fill-opacity="0.12"/>
<path d="M384.516 392.974L394.516 401.96L413.615 384.06L402.611 374.884L384.516 392.974Z" fill="#0DD7D7" fill-opacity="0.12"/>
<path fill-rule="evenodd" clip-rule="evenodd" d="M249 342.5C249 349.956 242.956 356 235.5 356C228.044 356 222 349.956 222 342.5C222 335.044 228.044 329 235.5 329C242.956 329 249 335.044 249 342.5ZM241.005 363.289C250.212 360.857 257 352.471 257 342.5C257 330.626 247.374 321 235.5 321C223.626 321 214 330.626 214 342.5C214 352.178 220.395 360.363 229.19 363.059L235.164 373.406L241.005 363.289Z" fill="#0DD7D7"/>
</g>
</g>
<defs>
<clipPath id="clip0_18_36">
<rect width="553" height="644" rx="36" fill="white"/>
</clipPath>
<clipPath id="clip1_18_36">
<rect width="831" height="1232" fill="white" transform="translate(-55 -154)"/>
</clipPath>
</defs>
</svg>
