<svg width="163" height="44" viewBox="0 0 163 44" fill="none" xmlns="http://www.w3.org/2000/svg">
<path fill-rule="evenodd" clip-rule="evenodd" d="M30.6809 18.0513C30.6809 25.2826 24.906 31.1448 17.7824 31.1448C10.6587 31.1448 4.8839 25.2826 4.8839 18.0513C4.8839 10.8199 10.6587 4.95775 17.7824 4.95775C24.906 4.95775 30.6809 10.8199 30.6809 18.0513ZM22.3359 35.5053C29.9507 33.4636 35.5648 26.4229 35.5648 18.0513C35.5648 8.08181 27.6033 0 17.7824 0C7.96142 0 0 8.08181 0 18.0513C0 26.1773 5.28931 33.0491 12.5636 35.3127L17.5046 44L22.3359 35.5053Z" fill="black"/>
<path d="M57.2676 33.1549C55.6192 33.1549 54.0218 32.9174 52.4752 32.4422C50.949 31.9671 49.7382 31.3371 48.8428 30.5521L50.2164 27.4225C51.0914 28.1249 52.1598 28.7033 53.4215 29.1577C54.7035 29.5915 55.9855 29.8084 57.2676 29.8084C58.8548 29.8084 60.0351 29.5502 60.8084 29.0338C61.6018 28.5174 61.9986 27.8357 61.9986 26.9887C61.9986 26.369 61.7751 25.8629 61.327 25.4704C60.9 25.0573 60.3505 24.7371 59.679 24.5099C59.0074 24.2826 58.0917 24.0244 56.9318 23.7352C55.3038 23.3427 53.9811 22.9502 52.9636 22.5577C51.9665 22.1653 51.1016 21.5558 50.3691 20.7296C49.6568 19.8826 49.3007 18.7465 49.3007 17.3211C49.3007 16.123 49.6161 15.0385 50.247 14.0676C50.8982 13.0761 51.8647 12.2911 53.1468 11.7127C54.4491 11.1343 56.0364 10.8451 57.9086 10.8451C59.2109 10.8451 60.4929 11.0103 61.7544 11.3408C63.0163 11.6713 64.1048 12.1465 65.0205 12.7662L63.769 15.8958C62.8331 15.338 61.8563 14.9146 60.8389 14.6253C59.8214 14.3361 58.8345 14.1915 57.878 14.1915C56.3111 14.1915 55.141 14.4601 54.3677 14.9972C53.6148 15.5343 53.2383 16.247 53.2383 17.1352C53.2383 17.7549 53.452 18.261 53.8794 18.6535C54.327 19.046 54.8867 19.3558 55.5582 19.5831C56.2297 19.8103 57.1455 20.0685 58.3054 20.3577C59.8926 20.7296 61.1952 21.122 62.2123 21.5352C63.2299 21.9277 64.095 22.5371 64.8068 23.3634C65.5394 24.1896 65.9057 25.3051 65.9057 26.7099C65.9057 27.908 65.5803 28.9925 64.9289 29.9634C64.2983 30.9343 63.3319 31.7089 62.0291 32.2873C60.727 32.8657 59.1397 33.1549 57.2676 33.1549ZM78.7235 16.1127C80.7784 16.1127 82.4267 16.722 83.6684 17.9408C84.9095 19.1596 85.5304 20.9671 85.5304 23.3634V32.8451H81.7149V23.8592C81.7149 22.4132 81.3791 21.3287 80.7076 20.6056C80.036 19.862 79.0794 19.4901 77.8383 19.4901C76.4342 19.4901 75.3249 19.9239 74.5111 20.7915C73.6967 21.6385 73.2901 22.8676 73.2901 24.4789V32.8451H69.4746V9.85352H73.2901V18.2197C73.9208 17.538 74.6943 17.0216 75.61 16.6704C76.5459 16.2986 77.5837 16.1127 78.7235 16.1127ZM106.151 16.2986V32.8451H102.519V30.738C101.909 31.4817 101.145 32.0601 100.23 32.4732C99.314 32.8657 98.3274 33.062 97.2689 33.062C95.0919 33.062 93.3721 32.4526 92.1102 31.2338C90.8691 29.9944 90.2483 28.1662 90.2483 25.7493V16.2986H94.0638V25.2225C94.0638 26.7099 94.3898 27.8253 95.0406 28.569C95.7121 29.292 96.6584 29.6535 97.8793 29.6535C99.2432 29.6535 100.321 29.2301 101.115 28.3831C101.929 27.5155 102.336 26.2761 102.336 24.6648V16.2986H106.151ZM120.945 31.9465C120.498 32.3183 119.948 32.5972 119.297 32.7831C118.666 32.969 117.995 33.062 117.282 33.062C115.492 33.062 114.108 32.5868 113.131 31.6366C112.154 30.6864 111.666 29.3023 111.666 27.4845V19.5211H108.98V16.4225H111.666V12.6422H115.481V16.4225H119.846V19.5211H115.481V27.3915C115.481 28.1972 115.675 28.8169 116.061 29.2507C116.449 29.6639 117.008 29.8704 117.74 29.8704C118.595 29.8704 119.307 29.6432 119.877 29.1887L120.945 31.9465ZM133.495 31.9465C133.048 32.3183 132.498 32.5972 131.847 32.7831C131.216 32.969 130.545 33.062 129.832 33.062C128.042 33.062 126.658 32.5868 125.681 31.6366C124.704 30.6864 124.216 29.3023 124.216 27.4845V19.5211H121.53V16.4225H124.216V12.6422H128.031V16.4225H132.396V19.5211H128.031V27.3915C128.031 28.1972 128.225 28.8169 128.611 29.2507C128.998 29.6639 129.558 29.8704 130.29 29.8704C131.145 29.8704 131.857 29.6432 132.427 29.1887L133.495 31.9465ZM136.634 9.85352H140.449V32.8451H136.634V9.85352ZM160.781 24.6648C160.781 24.9333 160.76 25.3155 160.72 25.8113H147.93C148.154 27.0301 148.734 28.0009 149.67 28.7239C150.626 29.4263 151.807 29.7775 153.211 29.7775C155.001 29.7775 156.477 29.1784 157.637 27.9803L159.682 30.3662C158.949 31.2544 158.023 31.9258 156.904 32.3803C155.785 32.8347 154.523 33.062 153.119 33.062C151.328 33.062 149.751 32.7005 148.388 31.9775C147.024 31.2544 145.966 30.2526 145.213 28.9718C144.481 27.6704 144.115 26.2037 144.115 24.5718C144.115 22.9606 144.47 21.5146 145.183 20.2338C145.915 18.9324 146.923 17.9202 148.205 17.1972C149.487 16.4742 150.931 16.1127 152.539 16.1127C154.127 16.1127 155.54 16.4742 156.782 17.1972C158.043 17.8995 159.02 18.9014 159.712 20.2028C160.424 21.4836 160.781 22.9709 160.781 24.6648ZM152.539 19.2113C151.318 19.2113 150.28 19.5831 149.426 20.3268C148.591 21.0498 148.083 22.0206 147.9 23.2394H157.148C156.985 22.0413 156.487 21.0704 155.653 20.3268C154.818 19.5831 153.78 19.2113 152.539 19.2113Z" fill="black"/>
</svg>
