<svg width="167" height="115" viewBox="0 0 167 115" fill="none" xmlns="http://www.w3.org/2000/svg">
<g filter="url(#filter0_f_101_606)">
<rect x="50" y="54" width="67" height="8" fill="black"/>
</g>
<rect x="50" width="67" height="67" rx="15" fill="white"/>
<path fill-rule="evenodd" clip-rule="evenodd" d="M92.1748 30.3077C92.1748 35.2382 88.1892 39.2351 83.2727 39.2351C78.3563 39.2351 74.3707 35.2382 74.3707 30.3077C74.3707 25.3772 78.3563 21.3803 83.2727 21.3803C88.1892 21.3803 92.1748 25.3772 92.1748 30.3077ZM86.4154 42.2082C91.6709 40.8161 95.5455 36.0156 95.5455 30.3077C95.5455 23.5103 90.0508 18 83.2727 18C76.4947 18 71 23.5103 71 30.3077C71 35.8481 74.6505 40.5335 79.6709 42.0769L83.081 48L86.4154 42.2082Z" fill="black"/>
<path d="M43.775 109.25C42.425 109.25 41.1167 109.058 39.85 108.675C38.6 108.292 37.6083 107.783 36.875 107.15L38 104.625C38.7167 105.192 39.5917 105.658 40.625 106.025C41.675 106.375 42.725 106.55 43.775 106.55C45.075 106.55 46.0417 106.342 46.675 105.925C47.325 105.508 47.65 104.958 47.65 104.275C47.65 103.775 47.4667 103.367 47.1 103.05C46.75 102.717 46.3 102.458 45.75 102.275C45.2 102.092 44.45 101.883 43.5 101.65C42.1667 101.333 41.0833 101.017 40.25 100.7C39.4333 100.383 38.725 99.8917 38.125 99.225C37.5417 98.5417 37.25 97.625 37.25 96.475C37.25 95.5083 37.5083 94.6333 38.025 93.85C38.5583 93.05 39.35 92.4167 40.4 91.95C41.4667 91.4833 42.7667 91.25 44.3 91.25C45.3667 91.25 46.4167 91.3833 47.45 91.65C48.4833 91.9167 49.375 92.3 50.125 92.8L49.1 95.325C48.3333 94.875 47.5333 94.5333 46.7 94.3C45.8667 94.0667 45.0583 93.95 44.275 93.95C42.9917 93.95 42.0333 94.1667 41.4 94.6C40.7833 95.0333 40.475 95.6083 40.475 96.325C40.475 96.825 40.65 97.2333 41 97.55C41.3667 97.8667 41.825 98.1167 42.375 98.3C42.925 98.4833 43.675 98.6917 44.625 98.925C45.925 99.225 46.9917 99.5417 47.825 99.875C48.6583 100.192 49.3667 100.683 49.95 101.35C50.55 102.017 50.85 102.917 50.85 104.05C50.85 105.017 50.5833 105.892 50.05 106.675C49.5333 107.458 48.7417 108.083 47.675 108.55C46.6083 109.017 45.3083 109.25 43.775 109.25ZM61.3477 95.5C63.031 95.5 64.381 95.9917 65.3977 96.975C66.4143 97.9583 66.9227 99.4167 66.9227 101.35V109H63.7977V101.75C63.7977 100.583 63.5227 99.7083 62.9727 99.125C62.4227 98.525 61.6393 98.225 60.6227 98.225C59.4727 98.225 58.5643 98.575 57.8977 99.275C57.231 99.9583 56.8977 100.95 56.8977 102.25V109H53.7727V90.45H56.8977V97.2C57.4143 96.65 58.0477 96.2333 58.7977 95.95C59.5643 95.65 60.4143 95.5 61.3477 95.5ZM83.8119 95.65V109H80.8369V107.3C80.3369 107.9 79.7119 108.367 78.9619 108.7C78.2119 109.017 77.4036 109.175 76.5369 109.175C74.7536 109.175 73.3452 108.683 72.3119 107.7C71.2952 106.7 70.7869 105.225 70.7869 103.275V95.65H73.9119V102.85C73.9119 104.05 74.1786 104.95 74.7119 105.55C75.2619 106.133 76.0369 106.425 77.0369 106.425C78.1536 106.425 79.0369 106.083 79.6869 105.4C80.3536 104.7 80.6869 103.7 80.6869 102.4V95.65H83.8119ZM95.9285 108.275C95.5618 108.575 95.1118 108.8 94.5785 108.95C94.0618 109.1 93.5118 109.175 92.9285 109.175C91.4618 109.175 90.3285 108.792 89.5285 108.025C88.7285 107.258 88.3285 106.142 88.3285 104.675V98.25H86.1285V95.75H88.3285V92.7H91.4535V95.75H95.0285V98.25H91.4535V104.6C91.4535 105.25 91.6118 105.75 91.9285 106.1C92.2452 106.433 92.7035 106.6 93.3035 106.6C94.0035 106.6 94.5868 106.417 95.0535 106.05L95.9285 108.275ZM106.207 108.275C105.84 108.575 105.39 108.8 104.857 108.95C104.34 109.1 103.79 109.175 103.207 109.175C101.74 109.175 100.607 108.792 99.8068 108.025C99.0068 107.258 98.6068 106.142 98.6068 104.675V98.25H96.4068V95.75H98.6068V92.7H101.732V95.75H105.307V98.25H101.732V104.6C101.732 105.25 101.89 105.75 102.207 106.1C102.524 106.433 102.982 106.6 103.582 106.6C104.282 106.6 104.865 106.417 105.332 106.05L106.207 108.275ZM108.778 90.45H111.903V109H108.778V90.45ZM128.554 102.4C128.554 102.617 128.537 102.925 128.504 103.325H118.029C118.212 104.308 118.687 105.092 119.454 105.675C120.237 106.242 121.204 106.525 122.354 106.525C123.821 106.525 125.029 106.042 125.979 105.075L127.654 107C127.054 107.717 126.296 108.258 125.379 108.625C124.462 108.992 123.429 109.175 122.279 109.175C120.812 109.175 119.521 108.883 118.404 108.3C117.287 107.717 116.421 106.908 115.804 105.875C115.204 104.825 114.904 103.642 114.904 102.325C114.904 101.025 115.196 99.8583 115.779 98.825C116.379 97.775 117.204 96.9583 118.254 96.375C119.304 95.7917 120.487 95.5 121.804 95.5C123.104 95.5 124.262 95.7917 125.279 96.375C126.312 96.9417 127.112 97.75 127.679 98.8C128.262 99.8333 128.554 101.033 128.554 102.4ZM121.804 98C120.804 98 119.954 98.3 119.254 98.9C118.571 99.4833 118.154 100.267 118.004 101.25H125.579C125.446 100.283 125.037 99.5 124.354 98.9C123.671 98.3 122.821 98 121.804 98Z" fill="black"/>
<defs>
<filter id="filter0_f_101_606" x="0" y="4" width="167" height="108" filterUnits="userSpaceOnUse" color-interpolation-filters="sRGB">
<feFlood flood-opacity="0" result="BackgroundImageFix"/>
<feBlend mode="normal" in="SourceGraphic" in2="BackgroundImageFix" result="shape"/>
<feGaussianBlur stdDeviation="25" result="effect1_foregroundBlur_101_606"/>
</filter>
</defs>
</svg>
