<svg width="112" height="107" viewBox="0 0 112 107" fill="none" xmlns="http://www.w3.org/2000/svg">
<g filter="url(#filter0_f_110_17)">
<rect x="50" y="50.5556" width="26.5833" height="6.44444" fill="black"/>
</g>
<rect x="50" y="28" width="26.5833" height="26.5833" rx="10" fill="white"/>
<path fill-rule="evenodd" clip-rule="evenodd" d="M59.8835 42.0662C62.4049 42.0662 62.5171 42.9214 62.5171 44.6998C62.5171 45.5909 62.5171 46.2248 62.1428 46.6889C61.7122 47.2237 60.9283 47.3333 59.8835 47.3333C58.8388 47.3333 58.0549 47.2237 57.6243 46.6889C57.25 46.2248 57.25 45.5915 57.25 44.7153L57.7147 44.6998H57.25C57.25 42.9214 57.3622 42.0662 59.8835 42.0662ZM66.6998 42.0662C69.2212 42.0662 69.3333 42.9214 69.3333 44.6998C69.3333 45.5909 69.3333 46.2248 68.9591 46.6889C68.5284 47.2237 67.7445 47.3333 66.6998 47.3333C65.655 47.3333 64.8712 47.2237 64.4405 46.6889C64.0662 46.2248 64.0662 45.5915 64.0662 44.7153L64.531 44.6998H64.0662C64.0662 42.9214 64.1784 42.0662 66.6998 42.0662ZM60.0113 42.996L59.8835 42.9957C58.2669 42.9957 58.184 43.1117 58.1797 44.4687L58.18 44.9973C58.1829 45.537 58.2035 45.9269 58.3474 46.1064C58.5116 46.3097 58.9993 46.4038 59.8835 46.4038C60.7678 46.4038 61.2555 46.309 61.4197 46.1058C61.5876 45.897 61.5876 45.4012 61.5876 44.7147C61.5876 43.1654 61.5876 43.0033 60.0113 42.996ZM66.8275 42.996L66.6998 42.9957C65.0831 42.9957 65.0002 43.1117 64.996 44.4687L64.9962 44.9973C64.9992 45.537 65.0197 45.9269 65.1637 46.1064C65.3279 46.3097 65.8155 46.4038 66.6998 46.4038C67.584 46.4038 68.0717 46.309 68.2359 46.1058C68.4038 45.897 68.4038 45.4012 68.4038 44.7147C68.4038 43.1654 68.4038 43.0033 66.8275 42.996ZM59.8835 35.25C62.4049 35.25 62.5171 36.1051 62.5171 37.8835C62.5171 38.7746 62.5171 39.4085 62.1428 39.8726C61.7122 40.4074 60.9283 40.5171 59.8835 40.5171C58.8388 40.5171 58.0549 40.4074 57.6243 39.8726C57.25 39.4085 57.25 38.7752 57.25 37.899L57.7147 37.8835H57.25C57.25 36.1051 57.3622 35.25 59.8835 35.25ZM66.6998 35.25C69.2212 35.25 69.3333 36.1051 69.3333 37.8835C69.3333 38.7746 69.3333 39.4085 68.9591 39.8726C68.5284 40.4074 67.7445 40.5171 66.6998 40.5171C65.655 40.5171 64.8712 40.4074 64.4405 39.8726C64.0662 39.4085 64.0662 38.7752 64.0662 37.899L64.531 37.8835H64.0662C64.0662 36.1051 64.1784 35.25 66.6998 35.25ZM60.0113 36.1798L59.8835 36.1795C58.2669 36.1795 58.184 36.2955 58.1797 37.6524L58.18 38.1811C58.1829 38.7208 58.2035 39.1106 58.3474 39.2902C58.5116 39.4934 58.9993 39.5876 59.8835 39.5876C60.7678 39.5876 61.2555 39.4928 61.4197 39.2896C61.5876 39.0807 61.5876 38.585 61.5876 37.8984C61.5876 36.3491 61.5876 36.1871 60.0113 36.1798ZM66.8275 36.1798L66.6998 36.1795C65.0831 36.1795 65.0002 36.2955 64.996 37.6524L64.9962 38.1811C64.9992 38.7208 65.0197 39.1106 65.1637 39.2902C65.3279 39.4934 65.8155 39.5876 66.6998 39.5876C67.584 39.5876 68.0717 39.4928 68.2359 39.2896C68.4038 39.0807 68.4038 38.585 68.4038 37.8984C68.4038 36.3491 68.4038 36.1871 66.8275 36.1798Z" fill="black" fill-opacity="0.4"/>
<defs>
<filter id="filter0_f_110_17" x="0" y="0.555557" width="126.583" height="106.444" filterUnits="userSpaceOnUse" color-interpolation-filters="sRGB">
<feFlood flood-opacity="0" result="BackgroundImageFix"/>
<feBlend mode="normal" in="SourceGraphic" in2="BackgroundImageFix" result="shape"/>
<feGaussianBlur stdDeviation="25" result="effect1_foregroundBlur_110_17"/>
</filter>
</defs>
</svg>
