<svg width="34" height="30" viewBox="0 0 34 30" fill="none" xmlns="http://www.w3.org/2000/svg">
<path fill-rule="evenodd" clip-rule="evenodd" d="M16.5193 0C18.2019 0 19.708 0.872649 20.5427 2.33421L32.3969 23.06C33.2267 24.5101 33.2217 26.2405 32.3821 27.6872C31.5424 29.1356 30.0429 30 28.3718 30H4.64535C2.97264 30 1.47313 29.1356 0.633476 27.6872C-0.206181 26.2405 -0.211129 24.5101 0.61863 23.06L12.4959 2.33091C13.3306 0.871 14.8334 0 16.5177 0H16.5193ZM16.5177 2.47443C15.7325 2.47443 15.033 2.88024 14.6404 3.56153L2.76644 24.289C2.38042 24.9654 2.38372 25.772 2.77468 26.4467C3.16564 27.1214 3.86508 27.5256 4.64535 27.5256H28.3718C29.1505 27.5256 29.8499 27.1214 30.2409 26.4467C30.6335 25.772 30.6368 24.9654 30.2475 24.289L18.3949 3.56153C18.004 2.88024 17.3045 2.47443 16.5177 2.47443ZM16.5065 20.6186C17.4187 20.6186 18.1561 21.356 18.1561 22.2682C18.1561 23.1805 17.4187 23.9178 16.5065 23.9178C15.5942 23.9178 14.8486 23.1805 14.8486 22.2682C14.8486 21.356 15.5794 20.6186 16.49 20.6186H16.5065ZM16.5032 10.8281C17.1861 10.8281 17.7404 11.3824 17.7404 12.0653V17.1791C17.7404 17.8621 17.1861 18.4164 16.5032 18.4164C15.8202 18.4164 15.2659 17.8621 15.2659 17.1791V12.0653C15.2659 11.3824 15.8202 10.8281 16.5032 10.8281Z" fill="#EB4335"/>
</svg>
