<svg width="32" height="29" viewBox="0 0 32 29" fill="none" xmlns="http://www.w3.org/2000/svg">
<path fill-rule="evenodd" clip-rule="evenodd" d="M22.2691 0.375C27.0918 0.375 31.0147 4.29792 31.0147 9.12208V19.5885C31.0147 24.4112 27.0918 28.3356 22.2691 28.3356H9.66322C4.84051 28.3356 0.916138 24.4112 0.916138 19.5885V9.12208C0.916138 4.29792 4.84051 0.375 9.66322 0.375H22.2691ZM22.2691 2.5625H9.66322C6.04655 2.5625 3.10364 5.50542 3.10364 9.12208V19.5885C3.10364 23.2052 6.04655 26.1481 9.66322 26.1481H22.2691C25.8857 26.1481 28.8272 23.2052 28.8272 19.5885V19.1802L24.0177 19.1811C21.2513 19.1811 18.9996 16.9309 18.9982 14.1659C18.9982 11.398 21.2498 9.14629 24.0177 9.14483L28.8272 9.14396V9.12208C28.8272 5.50542 25.8857 2.5625 22.2691 2.5625ZM28.8272 11.3315L24.0177 11.3323C22.4559 11.3338 21.1857 12.604 21.1857 14.1644C21.1857 15.7234 22.4573 16.9936 24.0177 16.9936L28.8272 16.9927V11.3315ZM24.6851 12.9803C25.2888 12.9803 25.7788 13.4703 25.7788 14.074C25.7788 14.6777 25.2888 15.1677 24.6851 15.1677H24.2301C23.6263 15.1677 23.1363 14.6777 23.1363 14.074C23.1363 13.4703 23.6263 12.9803 24.2301 12.9803H24.6851ZM16.4984 6.99306C17.1022 6.99306 17.5922 7.48306 17.5922 8.08681C17.5922 8.69056 17.1022 9.18056 16.4984 9.18056H8.62489C8.02114 9.18056 7.53114 8.69056 7.53114 8.08681C7.53114 7.48306 8.02114 6.99306 8.62489 6.99306H16.4984Z" fill="#9FBDE0"/>
</svg>
